<svg xmlns="http://www.w3.org/2000/svg" width="59.462" height="18.878" viewBox="0 0 59.462 18.878">
  <path id="Path_50" data-name="Path 50" d="M53,18.622V.548h6.462V18.622Zm-15.216,0v0l-.007,0S34.1,8.771,33.9,8.292A3.986,3.986,0,0,0,32.431,6.5L34.7.489a7.708,7.708,0,0,1,4.391,4.3c.293.715,1.433,3.855,1.937,5.245L44.613.548h6.462L44.245,18.622ZM30.314,5.86a3.946,3.946,0,0,0-3.9,3.991h0v8.771H19.953V.548h6.462V2.606A7.508,7.508,0,0,1,32.079.013q.372,0,.735.036l-2.2,5.823Q30.465,5.86,30.314,5.86ZM11.57,17.718a12.233,12.233,0,0,1-4.913,1.173,6.943,6.943,0,0,1-4.741-1.677A5.646,5.646,0,0,1,0,12.743,4.769,4.769,0,0,1,1.981,8.559,9.3,9.3,0,0,1,7.4,7.17h4.215v-.1c-.374-3.023-4.758-2-6.2-.758l-3.7-4.041A11.148,11.148,0,0,1,9.265.019c6.249.024,8.784,3.668,8.784,8.387V18.62H11.57S11.57,18.281,11.57,17.718ZM11.6,11.23H8.752q-2.336,0-2.336,1.493a1.386,1.386,0,0,0,.558,1.187,2.646,2.646,0,0,0,1.6.413,3.555,3.555,0,0,0,2.1-.653,2.271,2.271,0,0,0,.927-1.746Z" transform="translate(0.001 -0.013)" fill="#fff" fill-rule="evenodd"/>
</svg>
