<svg xmlns="http://www.w3.org/2000/svg" width="21.601" height="22.828" viewBox="0 0 21.601 22.828">
  <g id="Group_36" data-name="Group 36" transform="translate(-340.041 -54.873)">
    <path id="gem_layer_3" data-name="gem layer 3" d="M19.63,16.61l2.16-7.783V18.34ZM13.582,23.1,19.2,17.475l2.16,1.73ZM11.421.612,19.2,4.936l-7.776-.865Zm-.864,0V4.071l-7.776.865ZM.189,8.827l2.16,7.783L.189,18.34ZM8.4,23.1.621,19.2l2.16-1.73Z" transform="translate(339.852 54.261)" fill-rule="evenodd" opacity="0.4"/>
    <path id="gem_layer_2" data-name="gem layer 2" d="M18.537,10.8,12.057.858l9.072.865ZM10.76,19.018,3.848,12.532H17.673ZM.392,1.723,9.464.858,2.984,10.8Z" transform="translate(340.008 58.683)" fill-rule="evenodd" opacity="0.749"/>
    <path id="gem_layer_1" data-name="gem layer 1" d="M6.929,11.667H.017L6.929.858l6.912,10.809Z" transform="translate(343.974 58.683)" fill-rule="evenodd"/>
  </g>
</svg>
