<svg xmlns="http://www.w3.org/2000/svg" width="448" height="32" viewBox="0 0 448 32"><defs><style>.a{fill:#fff;stroke:#707070;opacity:0;}.b,.c,.d,.e{fill:#195dff;}.b,.g{opacity:0.502;}.c,.j{opacity:0.749;}.e{opacity:0.251;}.f,.g,.h,.i,.j,.k{fill:#004cff;}.h{stroke:rgba(0,0,0,0);stroke-miterlimit:10;fill-rule:evenodd;opacity:0.5;}.i{opacity:0.549;}.k{opacity:0.349;}.l{fill:#d2d2d2;}.m{fill:#fed103;}.n{fill:#fca70f;}.o{fill:#ff4535;}.p{fill:#bf61d6;}.q{fill:#129af5;}.r{fill:#4bca2a;}.s{stroke:none;}.t{fill:none;}</style></defs><g transform="translate(-109 -102)"><g class="a" transform="translate(109 102)"><rect class="s" width="448" height="32"/><rect class="t" x="0.5" y="0.5" width="447" height="31"/></g><g transform="translate(-599 -148)"><ellipse class="b" cx="5.22" cy="5.19" rx="5.22" ry="5.19" transform="translate(1134.78 257)"/><ellipse class="c" cx="5.2" cy="5.19" rx="5.2" ry="5.19" transform="translate(1138.6 263.62)"/><ellipse class="d" cx="5.2" cy="5.19" rx="5.2" ry="5.19" transform="translate(1131 263.62)"/></g><g transform="translate(-393 -148)"><rect class="e" width="15" height="11" rx="2" transform="translate(896 259)"/><path class="e" d="M896,261h11a2,2,0,0,1,2,2v7a2,2,0,0,1-2,2l-11-1a2,2,0,0,1-2-2v-6A2,2,0,0,1,896,261Z"/><rect class="d" width="15" height="11" rx="2" transform="translate(892 263)"/></g><g transform="translate(91 -148)"><path class="f" d="M391,269c0,2.81-1.177,4.385-4.013,4.893v3.093h-2v-3.093C382.152,273.385,381,271.81,381,269c0-4.4,3.625-10,5-10S391,264.424,391,269Z"/><path class="g" d="M391.813,258.629l-.012-.007a.032.032,0,0,1-.008-.011,6.318,6.318,0,0,0-5.784-3.62,6.447,6.447,0,0,0-4.175,1.51,5.925,5.925,0,0,0-2.071,3.723.033.033,0,0,1-.008.018.035.035,0,0,1-.017.01,3.627,3.627,0,0,0-2.086,1.364c-1.679,2.28.058,5.392,3.135,5.392H390.3C395.686,267.009,396.767,260.063,391.813,258.629Z"/></g><g transform="translate(320 -148)"><path class="d" d="M118,275a2,2,0,0,1-2-2v-2a2,2,0,0,1,2-2h2a2,2,0,0,1,2,2v2a2,2,0,0,1-2,2Zm6-6a2,2,0,0,1-2-2v-2a2,2,0,0,1,2-2h2a2,2,0,0,1,2,2v2a2,2,0,0,1-2,2Zm6-6a2,2,0,0,1-2-2v-2a2,2,0,0,1,2-2h2a2,2,0,0,1,2,2v2a2,2,0,0,1-2,2Z"/><path class="b" d="M130,275a2,2,0,0,1-2-2v-2a2,2,0,0,1,2-2h2a2,2,0,0,1,2,2v2a2,2,0,0,1-2,2Zm-13-9a1,1,0,0,1-1-1v-1a1,1,0,0,1,1-1h1a1,1,0,0,1,1,1v1a1,1,0,0,1-1,1Zm3-3a1,1,0,0,1-1-1v-1a1,1,0,0,1,1-1h1a1,1,0,0,1,1,1v1a1,1,0,0,1-1,1Zm3-3a1,1,0,0,1-1-1v-1a1,1,0,0,1,1-1h1a1,1,0,0,1,1,1v1a1,1,0,0,1-1,1Zm-6,0a1,1,0,0,1-1-1v-1a1,1,0,0,1,1-1h1a1,1,0,0,1,1,1v1a1,1,0,0,1-1,1Z"/></g><g transform="translate(-727 -74)"><path class="f" d="M1145,200a1,1,0,1,1,0-2h2a1,1,0,1,1,0,2Zm-12,0a1,1,0,0,1,0-2h9a1,1,0,0,1,0,2Zm7-3a1,1,0,1,1,0-2h9a1,1,0,1,1,0,2Zm-9,0a1,1,0,1,1,0-2h6a1,1,0,0,1,0,2Zm0-3a1,1,0,1,1,0-2h18a1,1,0,1,1,0,2Z"/><path class="h" d="M.015,8c-.006-.093-.029-.181-.029-.275A4.408,4.408,0,0,1,4.505,3.437,4.672,4.672,0,0,1,5.9,3.666,6.324,6.324,0,0,1,11.712.006a6.15,6.15,0,0,1,6.3,6A5.828,5.828,0,0,1,17.644,8Z" transform="translate(1131.014 182.994)"/></g><g transform="translate(-520 -74)"><path class="f" d="M896,201a4,4,0,0,1-4-4V187a4,4,0,0,1,4-4h10a4,4,0,0,1,4,4v10a4,4,0,0,1-4,4Zm-2-14v10a3.52,3.52,0,0,0,.467,1.284L907,185H896A2,2,0,0,0,894,187Zm8,8a1,1,0,0,0,1,1h1v1a1,1,0,0,0,2,0v-1h1a1,1,0,0,0,0-2h-1v-1a1,1,0,0,0-2,0v1h-1A1,1,0,0,0,902,195Zm-5-6a1,1,0,0,1,0-2h3a1,1,0,1,1,0,2Z"/></g><g transform="translate(-326 -74)"><path class="f" d="M683.991,186.986h-2.53l1.827-1.825-1.439-1.411-1.853,1.825v-2.581h-2v2.581l-1.8-1.825-1.4,1.411,1.84,1.825H674v2h2.636l-1.627,1.613,1.387,1.411,1.6-1.613v2.581h2v-2.581l1.853,1.825,1.426-1.411-1.813-1.825h2.53Z"/><path class="g" d="M673.333,192.016l-7.322,7.273,1.695,1.719,7.29-7.273Z"/></g><g transform="translate(-69 -74)"><path class="f" d="M378,196h16a8.334,8.334,0,0,1-16,0Zm11-4v-5a2,2,0,0,1,4,0v5Zm-10,0v-5a2,2,0,0,1,4,0v5Z"/><path class="i" d="M377.667,183.667a3.775,3.775,0,0,0-1.16,2.333A4.142,4.142,0,0,0,373,182.5a4.142,4.142,0,0,0,3.507-3.5A4.108,4.108,0,0,0,380,182.5,3.808,3.808,0,0,0,377.667,183.667Z"/></g><g transform="translate(160 -75)"><path class="f" d="M125,202a4,4,0,1,1,4-4A4,4,0,0,1,125,202Zm-2-6a1,1,0,1,0,1,1A1,1,0,0,0,123,196Zm8-4a4,4,0,1,1,4-4A4,4,0,0,1,131,192Zm-2-6a1,1,0,1,0,1,1A1,1,0,0,0,129,186Zm-10,6a4,4,0,1,1,4-4A4,4,0,0,1,119,192Zm-2-6a1,1,0,1,0,1,1A1,1,0,0,0,117,186Z"/></g><g transform="translate(-887)"><path class="f" d="M1147.5,123.989l-.984-6.546-.926,6.546h-1.67l-1.936-12h1.828l.913,6.428.838-6.428h1.829l.913,6.428.85-6.428h1.829l-1.809,12Zm-6.773,0-.433-2.757h-1.91l-.446,2.757h-3.773l-1.116-4.532c-.053,0-.109.006-.167.006h-1.049v4.526H1130v-12h2.882a2.791,2.791,0,0,1,2.244.835,3,3,0,0,1,.632,2.027V116.6a2.775,2.775,0,0,1-.976,2.151l1.293,5,2.015-11.755h2.523l2.03,12Zm-2.063-4.52h1.357l-.679-4.73Zm-6.831-1.8h1.1a1.037,1.037,0,0,0,1.041-1.039v-1.751a.922.922,0,0,0-1.041-1.046h-1.1Z"/></g><g transform="translate(-680 1)"><path class="f" d="M902.667,110.333A5.392,5.392,0,0,1,901.01,107a5.917,5.917,0,0,1-5.01,5,5.917,5.917,0,0,1,5.01,5,5.868,5.868,0,0,1,4.99-5A5.44,5.44,0,0,1,902.667,110.333Z" transform="translate(0 2)"/><path class="j" d="M896.667,119.333A5.392,5.392,0,0,1,895.01,116a5.917,5.917,0,0,1-5.01,5,5.917,5.917,0,0,1,5.01,5,5.869,5.869,0,0,1,4.99-5A5.44,5.44,0,0,1,896.667,119.333Z" transform="translate(1 1)"/><path class="g" d="M908.667,119.333A5.392,5.392,0,0,1,907.01,116a5.917,5.917,0,0,1-5.01,5,5.917,5.917,0,0,1,5.01,5,5.869,5.869,0,0,1,4.99-5A5.44,5.44,0,0,1,908.667,119.333Z" transform="translate(-1 1)"/></g><g transform="translate(-487)"><path class="f" d="M675,124a1,1,0,1,1,1,1A1,1,0,0,1,675,124Zm4-3a1,1,0,1,1,1,1A1,1,0,0,1,679,121Zm-8,0a1,1,0,1,1,1,1A1,1,0,0,1,671,121Zm4-3a1,1,0,1,1,1,1A1,1,0,0,1,675,118Zm4-3a1,1,0,1,1,1,1A1,1,0,0,1,679,115Zm-8,0a1,1,0,1,1,1,1A1,1,0,0,1,671,115Zm4-3a1,1,0,1,1,1,1A1,1,0,0,1,675,112Z"/><path class="g" d="M679,127a1,1,0,1,1,1,1A1,1,0,0,1,679,127Zm-8,0a1,1,0,1,1,1,1A1,1,0,0,1,671,127Zm12-3a1,1,0,1,1,1,1A1,1,0,0,1,683,124Zm-16,0a1,1,0,1,1,1,1A1,1,0,0,1,667,124Zm16-6a1,1,0,1,1,1,1A1,1,0,0,1,683,118Zm-16,0a1,1,0,1,1,1,1A1,1,0,0,1,667,118Zm16-6a1,1,0,1,1,1,1A1,1,0,0,1,683,112Zm-16,0a1,1,0,1,1,1,1A1,1,0,0,1,667,112Zm12-3a1,1,0,1,1,1,1A1,1,0,0,1,679,109Zm-8,0a1,1,0,1,1,1,1A1,1,0,0,1,671,109Z"/></g><g transform="translate(-229)"><circle class="f" cx="6" cy="6" r="6" transform="translate(380 112)"/><path class="k" d="M385,130v-4h2v4Zm5.95-5.636,1.414-1.414,2.829,2.829-1.415,1.414Zm-14.143,1.415,2.829-2.829,1.414,1.414-2.829,2.829ZM394,119v-2h4v2Zm-20,0v-2h4v2Zm16.95-7.364,2.828-2.829,1.415,1.415-2.829,2.828Zm-14.143-1.414,1.414-1.415,2.829,2.829-1.414,1.414ZM385,110v-4h2v4Z"/></g><g transform="translate(-1480 -1661)"><circle class="l" cx="9" cy="9" r="9" transform="translate(1596 1770)"/><g transform="translate(1596 1770)"><path class="m" d="M7.493-22.456a5.383,5.383,0,0,1,2.032.683A5.4,5.4,0,0,1,11.5-14.4a5.4,5.4,0,0,0-7.377-1.977,5.383,5.383,0,0,0-1.606,1.416A9,9,0,0,1,7.493-22.456Z" transform="translate(-2.502 23.396)"/><path class="n" d="M17.031-22a5.383,5.383,0,0,1,.424,2.1,5.4,5.4,0,0,1-5.4,5.4,5.4,5.4,0,0,0-1.977-7.377,5.383,5.383,0,0,0-2.032-.683,8.963,8.963,0,0,1,4.009-.94A8.958,8.958,0,0,1,17.031-22Z" transform="translate(-3.055 23.5)"/><path class="o" d="M21.483-13.773a5.383,5.383,0,0,1-1.606,1.416A5.4,5.4,0,0,1,12.5-14.333a5.4,5.4,0,0,0,5.4-5.4,5.383,5.383,0,0,0-.424-2.1,8.992,8.992,0,0,1,4.024,7.5Q21.5-14.051,21.483-13.773Z" transform="translate(-3.5 23.333)"/><path class="p" d="M16.429-5.44A5.383,5.383,0,0,1,14.4-6.123,5.4,5.4,0,0,1,12.42-13.5,5.4,5.4,0,0,0,19.8-11.523,5.383,5.383,0,0,0,21.4-12.939,9,9,0,0,1,16.429-5.44Z" transform="translate(-3.42 22.5)"/><path class="q" d="M6.924-6A5.383,5.383,0,0,1,6.5-8.1a5.4,5.4,0,0,1,5.4-5.4,5.4,5.4,0,0,0,1.977,7.377,5.383,5.383,0,0,0,2.032.683A8.963,8.963,0,0,1,11.9-4.5,8.958,8.958,0,0,1,6.924-6Z" transform="translate(-2.9 22.5)"/><path class="r" d="M2.517-14.361a5.383,5.383,0,0,1,1.606-1.416A5.4,5.4,0,0,1,11.5-13.8,5.4,5.4,0,0,0,6.1-8.4a5.383,5.383,0,0,0,.424,2.1A8.992,8.992,0,0,1,2.5-13.8Q2.5-14.082,2.517-14.361Z" transform="translate(-2.5 22.8)"/></g></g></g></svg>