<svg xmlns="http://www.w3.org/2000/svg" width="100" height="24.343" viewBox="0 0 100 24.343">
  <path id="gemia_logo" data-name="gemia logo" d="M94.245,17.935V15.658q-1.331,2.57-5.192,2.57a8.111,8.111,0,0,1-3.537-.716,5.242,5.242,0,0,1-2.255-1.936,5.137,5.137,0,0,1-.762-2.782,4.518,4.518,0,0,1,1.914-3.888q1.914-1.382,5.906-1.383h3.5q-.163-2.8-3.731-2.8a8.548,8.548,0,0,0-2.563.407,6.834,6.834,0,0,0-2.206,1.122l-2.077-4.2A11.482,11.482,0,0,1,86.8.546,16.85,16.85,0,0,1,91,.009q4.38,0,6.684,2t2.3,6.133v9.793Zm-.422-7.19H91.162q-2.694,0-2.693,1.789a1.575,1.575,0,0,0,.616,1.3,2.648,2.648,0,0,0,1.687.488,3.407,3.407,0,0,0,1.882-.52,2.9,2.9,0,0,0,1.168-1.529ZM74.626.3h6.123V17.937H74.626Zm-8.5,8.558a4.372,4.372,0,0,0-.7-2.733,2.366,2.366,0,0,0-1.964-.878,2.814,2.814,0,0,0-2.24.976,4.431,4.431,0,0,0-.844,2.961v8.752H54.213V8.859q0-3.612-2.662-3.612a2.85,2.85,0,0,0-2.272.976,4.432,4.432,0,0,0-.844,2.961v8.752H42.266V.3h5.876V2.156A6.182,6.182,0,0,1,50.463.546,7.864,7.864,0,0,1,53.4.009a7.725,7.725,0,0,1,3.311.683,5.633,5.633,0,0,1,2.37,2.082,6.823,6.823,0,0,1,2.63-2.05A8.368,8.368,0,0,1,65.185.009a6.957,6.957,0,0,1,5.178,1.952Q72.294,3.913,72.3,7.85V17.937H66.127ZM27.722,10.68a3.586,3.586,0,0,0,1.5,2.1,4.967,4.967,0,0,0,2.788.732,5.977,5.977,0,0,0,2.175-.358,6.408,6.408,0,0,0,1.853-1.171l3.223,3.384q-2.546,2.863-7.445,2.863a11.792,11.792,0,0,1-5.382-1.171A8.692,8.692,0,0,1,22.839,13.8a8.857,8.857,0,0,1-1.273-4.717,8.89,8.89,0,0,1,1.241-4.669A8.7,8.7,0,0,1,26.239,1.18,10.905,10.905,0,0,1,35.907,1.1a8.25,8.25,0,0,1,3.368,3.156,9.336,9.336,0,0,1,1.241,4.9q0,.066-.1,1.529Zm5.849-5.466a3.856,3.856,0,0,0-4.738,0,3.682,3.682,0,0,0-1.209,2.212h7.155A3.687,3.687,0,0,0,33.571,5.214ZM9.6,24.352a19.211,19.211,0,0,1-4.82-.581A11.371,11.371,0,0,1,.952,22.06l2.217-4.294a7.8,7.8,0,0,0,2.683,1.372,10.818,10.818,0,0,0,3.2.5,5,5,0,0,0,3.535-1.065,4.157,4.157,0,0,0,1.125-3.164v-.581a6.433,6.433,0,0,1-5.174,2.066,8.912,8.912,0,0,1-4.274-1.049,7.965,7.965,0,0,1-3.117-2.97A8.434,8.434,0,0,1-.012,8.435,8.375,8.375,0,0,1,1.145,4.028a7.972,7.972,0,0,1,3.117-2.97A8.919,8.919,0,0,1,8.536.009,6.262,6.262,0,0,1,14,2.43V.3h5.817V14.6q0,4.875-2.635,7.313T9.6,24.352ZM12.714,5.869a3.857,3.857,0,0,0-2.732-.985,3.915,3.915,0,0,0-2.748.985A3.317,3.317,0,0,0,6.158,8.435a3.341,3.341,0,0,0,1.093,2.583,3.888,3.888,0,0,0,2.731,1,3.832,3.832,0,0,0,2.716-1,3.366,3.366,0,0,0,1.077-2.583A3.342,3.342,0,0,0,12.714,5.869Z"/>
</svg>
